<?xml version="1.0" encoding="utf-8"?>
<!-- Generator: Adobe Illustrator 15.0.0, SVG Export Plug-In . SVG Version: 6.00 Build 0)  -->
<!DOCTYPE svg PUBLIC "-//W3C//DTD SVG 1.1//EN" "http://www.w3.org/Graphics/SVG/1.1/DTD/svg11.dtd">
<svg version="1.1" id="Layer_1" xmlns="http://www.w3.org/2000/svg" xmlns:xlink="http://www.w3.org/1999/xlink" x="0px" y="0px"
	 width="33px" height="33px" viewBox="239.5 239.5 33 33" enable-background="new 239.5 239.5 33 33" xml:space="preserve">
<path fill="#B0C5D9" d="M253.113,263.166c-0.876-0.877-2.161-1.104-3.25-0.681v-10.972c0-1.674-1.361-3.036-3.037-3.036
	c-1.673,0-3.035,1.362-3.035,3.036v10.97c-0.347-0.135-0.721-0.206-1.104-0.206c-0.811,0-1.573,0.315-2.146,0.889
	c-0.007,0.008-0.015,0.016-0.022,0.023c-0.56,0.57-0.868,1.324-0.868,2.125c0,0.811,0.316,1.573,0.89,2.146
	c0,0,2.479,2.479,4.14,4.14c0.573,0.573,1.335,0.89,2.147,0.89s1.574-0.316,2.146-0.889c1.661-1.661,4.14-4.141,4.14-4.141
	c0.574-0.573,0.89-1.336,0.89-2.146c0-0.801-0.308-1.555-0.868-2.125C253.128,263.182,253.12,263.174,253.113,263.166
	L253.113,263.166z"/>
<path fill="#B0C5D9" d="M242.544,245.581h26.912c1.674,0,3.035-1.362,3.035-3.035c0-1.676-1.361-3.038-3.035-3.038h-26.912
	c-1.673,0-3.035,1.362-3.035,3.038C239.509,244.219,240.871,245.581,242.544,245.581z"/>
<path fill="#B0C5D9" d="M272.491,251.515c0-1.676-1.361-3.038-3.035-3.038h-14.492c-1.674,0-3.036,1.362-3.036,3.038
	c0,1.674,1.362,3.035,3.036,3.035h14.492C271.13,254.55,272.491,253.189,272.491,251.515z"/>
<path fill="#B0C5D9" d="M269.456,257.447h-10.353c-1.673,0-3.035,1.362-3.035,3.038c0,1.673,1.362,3.034,3.035,3.034h10.353
	c1.674,0,3.035-1.361,3.035-3.034C272.491,258.81,271.13,257.447,269.456,257.447z"/>
<path fill="#B0C5D9" d="M269.456,266.096h-10.353c-1.673,0-3.035,1.361-3.035,3.037c0,1.674,1.362,3.035,3.035,3.035h10.353
	c1.674,0,3.035-1.361,3.035-3.035C272.491,267.457,271.13,266.096,269.456,266.096z"/>
</svg>
